<svg
                          width="22"
                          height="22"
                          viewBox="0 0 50 50"
                          fill="none"
                          xmlns="http://www.w3.org/2000/svg"
                        >
                          <path
                            d="M35.4039 17.7808L32.2193 14.5961C31.8349 14.2117 31.3238 14 30.7801 14C30.2365 14 29.7254 14.2117 29.341 14.5961L16.0101 27.927C15.8836 28.0535 15.802 28.2181 15.7779 28.3954L15.0074 34.072C14.9731 34.3251 15.059 34.5798 15.2396 34.7604C15.394 34.9148 15.6025 35 15.818 35C15.8545 35 15.8913 34.9976 15.9281 34.9926L21.6045 34.2221C21.7819 34.198 21.9464 34.1165 22.073 33.9899L35.4039 20.6591C35.7883 20.2747 36 19.7635 36 19.2199C36 18.6763 35.7883 18.1652 35.4039 17.7808ZM21.1112 32.638L16.7731 33.2268L17.362 28.8888L26.8086 19.4422L30.5578 23.1914L21.1112 32.638ZM34.247 19.5022L31.7147 22.0345L27.9655 18.2853L30.4978 15.753C30.5996 15.6512 30.7184 15.636 30.7801 15.636C30.8419 15.636 30.9607 15.6512 31.0624 15.753L34.2471 18.9376C34.3488 19.0394 34.364 19.1581 34.364 19.2199C34.364 19.2816 34.3488 19.4004 34.247 19.5022Z"
                            fill="#68BFD6"
                          ></path>
                          <circle
                            cx="25"
                            cy="25"
                            r="24.5"
                            stroke="#68BFD6"
                          ></circle>
                        </svg>